<svg width="128" height="128" viewBox="0 0 128 128" fill="none" xmlns="http://www.w3.org/2000/svg">
  <defs>
    <linearGradient id="deepclaw-bg" x1="18" y1="14" x2="110" y2="116" gradientUnits="userSpaceOnUse">
      <stop offset="0" stop-color="#0B1830" />
      <stop offset="1" stop-color="#132B52" />
    </linearGradient>
    <linearGradient id="deepclaw-mark" x1="34" y1="26" x2="98" y2="98" gradientUnits="userSpaceOnUse">
      <stop offset="0" stop-color="#41C8FF" />
      <stop offset="0.55" stop-color="#4F95FF" />
      <stop offset="1" stop-color="#59E0CD" />
    </linearGradient>
    <radialGradient id="deepclaw-glow" cx="0" cy="0" r="1" gradientUnits="userSpaceOnUse" gradientTransform="translate(88 36) rotate(132.614) scale(78.9471)">
      <stop stop-color="#4FC8FF" stop-opacity="0.42" />
      <stop offset="1" stop-color="#4FC8FF" stop-opacity="0" />
    </radialGradient>
  </defs>
  <rect x="10" y="10" width="108" height="108" rx="30" fill="url(#deepclaw-bg)" />
  <rect x="10" y="10" width="108" height="108" rx="30" fill="url(#deepclaw-glow)" />
  <g opacity="0.16" fill="#9EDBFF">
    <circle cx="36" cy="32" r="2.5" />
    <circle cx="30" cy="48" r="2.5" />
    <circle cx="38" cy="64" r="2.5" />
    <circle cx="32" cy="82" r="2.5" />
    <circle cx="91" cy="82" r="2.5" />
    <circle cx="98" cy="64" r="2.5" />
  </g>
  <path
    d="M48 32V96"
    stroke="url(#deepclaw-mark)"
    stroke-width="12"
    stroke-linecap="round"
  />
  <circle cx="48" cy="44" r="4.5" fill="#DFF8FF" />
  <circle cx="48" cy="64" r="4.5" fill="#DFF8FF" />
  <circle cx="48" cy="84" r="4.5" fill="#DFF8FF" />
  <path
    d="M50 32C73 32 89 45 89 64C89 83 73 96 50 96"
    stroke="url(#deepclaw-mark)"
    stroke-width="12"
    stroke-linecap="round"
    stroke-linejoin="round"
  />
  <path
    d="M82 48L98 38"
    stroke="url(#deepclaw-mark)"
    stroke-width="11"
    stroke-linecap="round"
    stroke-linejoin="round"
  />
  <path
    d="M82 80L98 90"
    stroke="url(#deepclaw-mark)"
    stroke-width="11"
    stroke-linecap="round"
    stroke-linejoin="round"
  />
</svg>
